<svg xmlns="http://www.w3.org/2000/svg" xml:space="preserve" viewBox="0 0 110.86 143.2">
  <path stroke="#e0e0e0" d="M110.86 88V21.99L61.63 2.46 55.43 0l-6.2 2.46L0 21.99V88s-1.01 26.2 28.22 40.82c1.03.52 2.06 1.04 3.08 1.55 8.58 4.35 16.82 8.78 24.13 12.83a771.06 771.06 0 0 1 24.13-12.83c1.02-.52 2.05-1.04 3.08-1.55C111.87 114.2 110.86 88 110.86 88m-32.43 32.45-3.17 1.59c-6.35 3.22-13.04 6.78-19.83 10.49-6.8-3.71-13.48-7.26-19.83-10.48l-3.18-1.6C9.98 109.23 9.47 90.28 9.47 88.59V28.27c9.77-3.88 43.44-17.23 43.44-17.23l2.52-1c1.21.48 36.19 14.36 45.96 18.23V88.6c0 1.67-.51 20.63-22.96 31.85z" class="st0"/>
  <path stroke="#e0e0e0" d="m30.32 78.38.2.1 24.81 12.26 25.22-12.46-25.02 37.47zm50.23-13.56-.21-.1-24.81-12.26-25.21 12.46 25.01-37.47z" class="st0"/>
  <path stroke="#e0e0e0" d="M55.43 59.04 30.36 71.45l25.07 12.41L80.5 71.45 55.43 59.04" class="st0"/>
</svg>
