<svg xmlns="http://www.w3.org/2000/svg" fill-rule="evenodd" clip-rule="evenodd" image-rendering="optimizeQuality" shape-rendering="geometricPrecision" text-rendering="geometricPrecision" viewBox="0 0 534 689">
  <path fill="#5532b9" d="M263.5-.5h6a23024.543 23024.543 0 0 0 264 105v329c-10.833 77.324-49.833 135.824-117 175.5a3960.284 3960.284 0 0 0-149 79.5h-1a5193.707 5193.707 0 0 0-148-78.5C49 569.99 9.333 510.157-.5 430.5v-326a23022.36 23022.36 0 0 0 264-105Zm2 49a22269.61 22269.61 0 0 1 220 87 15201.066 15201.066 0 0 1 .5 302c-7.044 43.596-27.21 79.763-60.5 108.5a287.41 287.41 0 0 1-41 28 3291.922 3291.922 0 0 0-118 61.5 3074.29 3074.29 0 0 0-114-59.5c-44.956-22.621-77.123-57.121-96.5-103.5a166.62 166.62 0 0 1-9-37c-.833-100.002-.667-200.002.5-300a777920.192 777920.192 0 0 0 218-87Z" opacity=".971"/>
  <path fill="#5532b9" d="M265.5 130.5a12672.846 12672.846 0 0 1 122 180l-1 1a6621.506 6621.506 0 0 0-119.5-59A19483.684 19483.684 0 0 1 148.5 311c-1 .667-2 .667-3 0a17865.62 17865.62 0 0 0 120-180.5Z" opacity=".97"/>
  <path fill="#5532b9" d="M265.5 282.5c40.799 19.9 81.466 40.066 122 60.5A4090.167 4090.167 0 0 1 266 402.5 19790.589 19790.589 0 0 1 146.5 344c-1.333-.667-1.333-1.333 0-2l119-59.5Z" opacity=".977"/>
  <path fill="#5532b9" d="M145.5 375.5a20198.72 20198.72 0 0 0 120.5 59 20110.173 20110.173 0 0 0 120.5-59l1 1a25914.284 25914.284 0 0 1-120.5 180 13455.385 13455.385 0 0 1-121.5-181Z" opacity=".97"/>
</svg>
